<?xml version="1.0" encoding="UTF-8"?>
<svg xmlns="http://www.w3.org/2000/svg" xmlns:xlink="http://www.w3.org/1999/xlink" viewBox="0 0 426.82 405.46">
  <defs>
    <style>
      .cls-1 {
        fill: none;
        mix-blend-mode: overlay;
        opacity: .23;
        stroke: #fff;
        stroke-miterlimit: 10;
        stroke-width: 13.23px;
      }

      .cls-2 {
        fill: #fff;
      }

      .cls-3 {
        mask: url(#mask);
      }

      .cls-4 {
        fill: #c00;
      }

      .cls-5 {
        isolation: isolate;
      }
    </style>
    <mask id="mask" x="-36.5" y="-22.89" width="476.56" height="433.17" maskUnits="userSpaceOnUse">
      <path class="cls-2" d="M-36.5-22.89v433.17h473.07V-22.89H-36.5ZM223.04,358.43H28.29V82.01h194.75v276.42ZM419.81,135.85c0,1.51-.04,3.05-.13,4.57l10.18,3.31c3.74,1.22,6.79,3.82,8.58,7.33,1.79,3.51,2.1,7.5.88,11.25l-4.87,14.99c-1.98,6.09-7.61,10.19-14.02,10.19h0c-1.55,0-3.08-.24-4.56-.73l-10.18-3.31c-1.65,2.53-3.46,5.02-5.38,7.39l6.3,8.67c2.31,3.18,3.25,7.08,2.63,10.97-.62,3.89-2.71,7.31-5.89,9.62l-12.75,9.26c-2.53,1.84-5.53,2.82-8.66,2.82-4.71,0-9.17-2.27-11.93-6.08l-6.28-8.65c-2.83,1.09-5.76,2.03-8.71,2.82v10.7c0,8.13-6.61,14.74-14.74,14.74h-15.75c-8.13,0-14.74-6.61-14.74-14.74v-10.7c-2.94-.78-5.86-1.73-8.71-2.82l-6.28,8.65c-2.77,3.81-7.23,6.08-11.93,6.08-3.13,0-6.12-.97-8.66-2.82l-12.75-9.26c-3.18-2.31-5.28-5.73-5.89-9.62-.62-3.89.32-7.78,2.63-10.97l6.3-8.67c-1.93-2.38-3.74-4.86-5.39-7.41l-10.17,3.32c-1.48.48-3.01.72-4.56.72-6.4,0-12.04-4.09-14.02-10.19l-4.87-14.98c-2.51-7.73,1.74-16.06,9.46-18.57l10.18-3.31c-.09-1.55-.13-3.08-.13-4.57s.04-3.03.13-4.57l-10.18-3.31c-7.73-2.51-11.97-10.84-9.46-18.57l4.87-14.99c1.98-6.09,7.61-10.19,14.02-10.19,1.55,0,3.08.24,4.56.73l10.18,3.31c1.66-2.54,3.47-5.03,5.39-7.39l-6.3-8.67c-2.31-3.18-3.25-7.08-2.63-10.97.62-3.89,2.71-7.3,5.89-9.62l12.75-9.26c2.54-1.84,5.53-2.81,8.66-2.81,4.7,0,9.16,2.27,11.93,6.08l6.29,8.65c2.84-1.09,5.76-2.04,8.71-2.82v-10.7c0-8.13,6.61-14.74,14.74-14.74h15.75c8.13,0,14.74,6.61,14.74,14.74v10.7c2.94.78,5.86,1.73,8.71,2.82l6.28-8.65c2.76-3.8,7.22-6.08,11.93-6.08,3.13,0,6.12.97,8.66,2.81l12.75,9.26c3.19,2.31,5.28,5.73,5.89,9.62.61,3.89-.32,7.78-2.63,10.97l-6.3,8.67c1.93,2.38,3.74,4.87,5.4,7.41l10.17-3.32c1.48-.48,3.01-.73,4.56-.73,6.4,0,12.04,4.09,14.02,10.19l4.87,14.98c1.22,3.74.9,7.74-.89,11.25-1.79,3.51-4.83,6.11-8.58,7.32l-10.18,3.31c.08,1.53.13,3.06.13,4.57Z"/>
    </mask>
  </defs>
  <g class="cls-5">
    <g id="Layer_2" data-name="Layer 2">
      <g id="Layer_1-2" data-name="Layer 1">
        <g>
          <g class="cls-3">
            <path class="cls-4" d="M301.02,104.44C203.12,6.54,79.75-28.82,25.46,25.46-28.82,79.75,6.54,203.12,104.44,301.02c97.9,97.9,221.27,133.26,275.56,78.98,54.28-54.28,18.92-177.65-78.98-275.56ZM374.29,374.29c-47.66,47.66-163.6,8.98-258.97-86.39C19.95,192.53-18.73,76.59,28.93,28.93c47.66-47.66,163.6-8.98,258.97,86.39,95.37,95.37,134.05,211.31,86.39,258.97Z"/>
          </g>
          <path class="cls-4" d="M28.29,322.29c0,14.98,12.15,23.51,27.13,23.51h101.38v-2.5c0-6.11,4.95-11.07,11.07-11.07h56.4c6.11,0,11.07,4.95,11.07,11.07v2.5h101.38c14.98,0,27.13-8.53,27.13-23.51H28.29Z"/>
          <path class="cls-4" d="M340.05,242.14h-7.62v32.36c0,6.89-5.59,12.48-12.48,12.48H72.18c-6.89,0-12.48-5.59-12.48-12.48v-143.53c0-6.89,5.59-12.48,12.48-12.48h156.63c-.73-2.61-.73-5.46.16-8.23l2.89-8.91H70.83c-15.61,0-28.26,12.65-28.26,28.26v146.23c0,15.61,12.65,28.26,28.26,28.26h250.47c15.61,0,28.26-12.65,28.26-28.26v-37.38c-2.53,2.27-5.86,3.67-9.52,3.67Z"/>
          <path class="cls-4" d="M422.14,150.08l-9.9-3.22c-2.9-.94-4.84-3.71-4.65-6.76.08-1.41.13-2.83.13-4.26s-.04-2.85-.13-4.26c-.18-3.05,1.75-5.82,4.65-6.76l9.9-3.22c3.55-1.15,5.49-4.96,4.34-8.51l-4.59-14.14c-1.15-3.55-4.96-5.49-8.51-4.34l-9.89,3.21c-2.89.94-6.08-.15-7.72-2.71-1.55-2.4-3.23-4.71-5.04-6.91-1.93-2.36-1.99-5.73-.2-8.2l6.12-8.43c2.19-3.02,1.52-7.24-1.49-9.44l-12.02-8.74c-3.02-2.19-7.24-1.52-9.44,1.49l-6.11,8.41c-1.79,2.46-5.02,3.45-7.85,2.34-2.64-1.03-5.36-1.91-8.14-2.64-2.94-.77-4.97-3.47-4.97-6.51v-10.4c0-3.73-3.03-6.76-6.76-6.76h-14.86c-3.73,0-6.76,3.03-6.76,6.76v10.4c0,3.04-2.03,5.74-4.97,6.51-2.78.73-5.49,1.61-8.14,2.64-2.84,1.1-6.06.12-7.85-2.34l-6.11-8.41c-2.19-3.02-6.42-3.69-9.44-1.49l-12.02,8.74c-3.02,2.19-3.69,6.42-1.49,9.44l6.12,8.43c1.79,2.47,1.73,5.84-.2,8.2-1.8,2.2-3.49,4.51-5.04,6.91-1.65,2.55-4.83,3.65-7.72,2.71l-9.89-3.21c-3.55-1.15-7.36.79-8.51,4.34l-4.59,14.14c-1.15,3.55.79,7.36,4.34,8.51l9.9,3.22c2.9.94,4.84,3.71,4.65,6.76-.08,1.41-.13,2.83-.13,4.26s.04,2.85.13,4.26c.18,3.05-1.75,5.82-4.65,6.76l-9.9,3.22c-3.55,1.15-5.49,4.96-4.34,8.51l4.59,14.14c1.15,3.55,4.96,5.49,8.51,4.34l9.89-3.21c2.89-.94,6.08.15,7.72,2.71,1.55,2.4,3.23,4.71,5.04,6.91,1.93,2.36,1.99,5.73.2,8.2l-6.12,8.43c-2.19,3.02-1.52,7.24,1.49,9.44l12.02,8.74c3.02,2.19,7.24,1.52,9.44-1.49l6.11-8.41c1.79-2.46,5.02-3.45,7.85-2.34,2.64,1.03,5.36,1.91,8.14,2.64,2.94.77,4.97,3.47,4.97,6.51v10.4c0,3.73,3.02,6.76,6.76,6.76h14.86c3.73,0,6.76-3.03,6.76-6.76v-10.4c0-3.04,2.03-5.74,4.97-6.51,2.78-.73,5.49-1.61,8.13-2.64,2.84-1.1,6.06-.12,7.85,2.34l6.11,8.41c2.19,3.02,6.42,3.69,9.44,1.49l12.02-8.74c3.02-2.19,3.69-6.42,1.49-9.44l-6.12-8.43c-1.79-2.47-1.73-5.84.2-8.2,1.8-2.2,3.49-4.51,5.04-6.91,1.65-2.55,4.83-3.65,7.72-2.71l9.89,3.21c3.55,1.15,7.36-.79,8.51-4.34l4.59-14.14c1.15-3.55-.79-7.36-4.34-8.51ZM332.43,186.55c-28,0-50.7-22.7-50.7-50.7s22.7-50.7,50.7-50.7,50.7,22.7,50.7,50.7-22.7,50.7-50.7,50.7Z"/>
          <path class="cls-4" d="M233.38,224.95l-4.12-1.34c-1.21-.39-2.01-1.54-1.94-2.81.03-.59.05-1.18.05-1.77s-.02-1.18-.05-1.77c-.08-1.27.73-2.42,1.94-2.81l4.12-1.34c1.48-.48,2.28-2.06,1.8-3.54l-1.91-5.88c-.48-1.48-2.06-2.28-3.54-1.8l-4.11,1.34c-1.2.39-2.53-.06-3.21-1.13-.64-1-1.34-1.96-2.09-2.88-.8-.98-.83-2.38-.08-3.41l2.55-3.5c.91-1.26.63-3.01-.62-3.93l-5-3.63c-1.26-.91-3.01-.63-3.93.62l-2.54,3.5c-.74,1.02-2.09,1.43-3.27.97-1.1-.43-2.23-.79-3.38-1.1-1.22-.32-2.07-1.44-2.07-2.71v-4.32c0-1.55-1.26-2.81-2.81-2.81h-6.18c-1.55,0-2.81,1.26-2.81,2.81v4.32c0,1.27-.84,2.39-2.07,2.71-1.16.3-2.28.67-3.38,1.1-1.18.46-2.52.05-3.27-.97l-2.54-3.5c-.91-1.26-2.67-1.53-3.93-.62l-5,3.63c-1.26.91-1.53,2.67-.62,3.93l2.55,3.5c.74,1.03.72,2.43-.08,3.41-.75.92-1.45,1.88-2.09,2.87-.69,1.06-2.01,1.52-3.21,1.13l-4.11-1.34c-1.48-.48-3.06.33-3.54,1.8l-1.91,5.88c-.48,1.48.33,3.06,1.8,3.54l4.12,1.34c1.21.39,2.01,1.54,1.94,2.81-.03.59-.05,1.18-.05,1.77s.02,1.18.05,1.77c.08,1.27-.73,2.42-1.94,2.81l-4.12,1.34c-1.48.48-2.28,2.06-1.8,3.54l1.91,5.88c.48,1.48,2.07,2.28,3.54,1.8l4.11-1.34c1.2-.39,2.53.06,3.21,1.13.64,1,1.34,1.96,2.09,2.87.8.98.83,2.38.08,3.41l-2.55,3.5c-.91,1.26-.63,3.01.62,3.93l5,3.63c1.26.91,3.01.63,3.93-.62l2.54-3.5c.74-1.02,2.09-1.43,3.27-.97,1.1.43,2.23.79,3.38,1.1,1.22.32,2.07,1.44,2.07,2.71v4.32c0,1.55,1.26,2.81,2.81,2.81h6.18c1.55,0,2.81-1.26,2.81-2.81v-4.32c0-1.27.84-2.39,2.07-2.71,1.16-.3,2.28-.67,3.38-1.1,1.18-.46,2.52-.05,3.27.97l2.54,3.5c.91,1.26,2.67,1.53,3.93.62l5-3.63c1.26-.91,1.53-2.67.62-3.93l-2.55-3.5c-.74-1.03-.72-2.43.08-3.41.75-.92,1.45-1.88,2.09-2.87.69-1.06,2.01-1.52,3.21-1.13l4.12,1.34c1.48.48,3.06-.33,3.54-1.8l1.91-5.88c.48-1.48-.33-3.06-1.8-3.54ZM196.07,240.11c-11.65,0-21.09-9.44-21.09-21.09s9.44-21.09,21.09-21.09,21.09,9.44,21.09,21.09-9.44,21.09-21.09,21.09Z"/>
          <path class="cls-4" d="M129.99,188.7l-1.31-2.57c-.38-.75-.22-1.67.41-2.24.29-.26.58-.53.86-.81s.55-.57.81-.86c.56-.63,1.48-.8,2.24-.41l2.57,1.31c.92.47,2.05.1,2.52-.82l1.87-3.67c.47-.92.1-2.05-.82-2.52l-2.57-1.31c-.75-.38-1.16-1.22-.98-2.04.17-.77.29-1.56.37-2.34.08-.84.73-1.51,1.57-1.64l2.85-.45c1.02-.16,1.72-1.12,1.56-2.14l-.64-4.07c-.16-1.02-1.12-1.72-2.14-1.56l-2.84.45c-.83.13-1.66-.31-2-1.08-.32-.72-.68-1.42-1.08-2.11-.43-.73-.29-1.65.3-2.25l2.04-2.04c.73-.73.73-1.92,0-2.65l-2.91-2.91c-.73-.73-1.92-.73-2.65,0l-2.04,2.04c-.6.6-1.52.73-2.25.3-.69-.4-1.39-.76-2.11-1.08-.77-.34-1.21-1.16-1.08-2l.45-2.84c.16-1.02-.53-1.98-1.56-2.14l-4.07-.64c-1.02-.16-1.98.53-2.14,1.56l-.45,2.85c-.13.83-.8,1.48-1.64,1.57-.79.08-1.57.2-2.34.37-.82.18-1.66-.23-2.04-.98l-1.31-2.57c-.47-.92-1.6-1.29-2.52-.82l-3.67,1.87c-.92.47-1.29,1.6-.82,2.52l1.31,2.57c.38.75.22,1.67-.41,2.24-.29.26-.58.53-.86.81s-.55.57-.81.86c-.56.63-1.48.8-2.24.41l-2.57-1.31c-.92-.47-2.05-.1-2.52.82l-1.87,3.67c-.47.92-.1,2.05.82,2.52l2.57,1.31c.75.38,1.16,1.22.98,2.04-.17.77-.29,1.55-.37,2.34-.08.84-.73,1.51-1.57,1.64l-2.85.45c-1.02.16-1.72,1.12-1.56,2.14l.64,4.07c.16,1.02,1.12,1.72,2.14,1.56l2.84-.45c.83-.13,1.66.31,2,1.08.32.72.68,1.42,1.08,2.11.43.73.29,1.65-.3,2.25l-2.04,2.04c-.73.73-.73,1.92,0,2.65l2.91,2.91c.73.73,1.92.73,2.65,0l2.04-2.04c.6-.6,1.52-.73,2.25-.3.69.4,1.39.76,2.11,1.08.77.34,1.21,1.16,1.08,2l-.45,2.84c-.16,1.02.53,1.98,1.56,2.14l4.07.64c1.02.16,1.98-.53,2.14-1.56l.45-2.85c.13-.83.8-1.48,1.64-1.57.79-.08,1.57-.2,2.34-.37.82-.18,1.66.23,2.04.98l1.31,2.57c.47.92,1.6,1.29,2.52.82l3.67-1.87c.92-.47,1.29-1.6.82-2.52ZM105.28,178.27c-5.48-5.48-5.48-14.37,0-19.86s14.37-5.48,19.86,0,5.48,14.37,0,19.86-14.37,5.48-19.86,0Z"/>
          <circle class="cls-4" cx="332.43" cy="135.85" r="32.49" transform="translate(1.31 274.85) rotate(-45)"/>
          <circle class="cls-1" cx="332.43" cy="135.85" r="63.33"/>
        </g>
      </g>
    </g>
  </g>
</svg>